<svg width="900" height="63" viewBox="0 0 900 63" fill="none" xmlns="http://www.w3.org/2000/svg">
<path d="M0.840001 61V4.36H14.28V27.4H14.52L34.76 4.36H51.88L27.48 30.44L53.32 61H35.48L14.44 34.92H14.28V61H0.840001ZM74.6531 62.28C68.4665 62.28 63.2398 60.3067 58.9731 56.36C54.7065 52.4133 52.5731 47.2667 52.5731 40.92C52.5731 34.5733 54.7065 29.48 58.9731 25.64C63.2398 21.8 68.4665 19.88 74.6531 19.88C80.8931 19.88 86.1465 21.8 90.4131 25.64C94.6798 29.48 96.8131 34.5733 96.8131 40.92C96.8131 47.2667 94.6798 52.4133 90.4131 56.36C86.1465 60.3067 80.8931 62.28 74.6531 62.28ZM67.7731 48.2C69.4798 50.2267 71.7998 51.24 74.7331 51.24C77.6665 51.24 79.9598 50.2267 81.6131 48.2C83.3198 46.12 84.1731 43.6933 84.1731 40.92C84.1731 38.2 83.3198 35.8267 81.6131 33.8C79.9065 31.7733 77.5865 30.76 74.6531 30.76C71.7198 30.76 69.4265 31.7733 67.7731 33.8C66.1198 35.7733 65.2931 38.1467 65.2931 40.92C65.2931 43.6933 66.1198 46.12 67.7731 48.2ZM105.12 61V21.16H122.48L132.16 44.92H132.32L141.44 21.16H158.96V61H146.32V34.84H146.08L135.84 61H127.84L117.68 34.76H117.44V61H105.12ZM169.183 61V21.16H208.543V61H195.343V31.24H182.383V61H169.183ZM230.792 61.96C228.445 61.96 226.232 61.6133 224.152 60.92C222.125 60.1733 220.312 58.8133 218.712 56.84C217.112 54.8667 216.312 52.4133 216.312 49.48C216.312 40.52 224.845 36.04 241.912 36.04V35.4C241.912 33.5333 241.245 32.12 239.912 31.16C238.579 30.1467 236.845 29.64 234.712 29.64C231.085 29.64 227.805 31 224.872 33.72L218.232 26.6C222.979 22.12 228.899 19.88 235.992 19.88C242.552 19.88 247.245 21.56 250.072 24.92C252.899 28.2267 254.312 33.56 254.312 40.92V61H242.312V56.76H242.072C241.112 58.36 239.592 59.64 237.512 60.6C235.432 61.5067 233.192 61.96 230.792 61.96ZM234.072 53.16C236.685 53.16 238.712 52.44 240.152 51C241.592 49.5067 242.312 47.5067 242.312 45V43.64H240.632C232.472 43.64 228.392 45.4533 228.392 49.08C228.392 50.4667 228.952 51.5067 230.072 52.2C231.192 52.84 232.525 53.16 234.072 53.16ZM264.104 61V21.16H277.304V35.24H290.264V21.16H303.464V61H290.264V45.32H277.304V61H264.104ZM313.714 61V21.16H326.674V44.36H326.834L340.674 21.16H354.594V61H341.794V38.36H341.554L327.954 61H313.714ZM362.088 61L371.447 46.36C366.061 44.44 363.368 40.4933 363.368 34.52C363.368 30.0933 364.914 26.76 368.008 24.52C371.101 22.28 374.994 21.16 379.688 21.16H401.927V61H388.728V47.8H383.848L377.048 61H362.088ZM382.408 39.56H388.728V29.48H382.408C380.434 29.48 378.834 29.9067 377.608 30.76C376.381 31.6133 375.768 32.8667 375.768 34.52C375.768 37.88 377.981 39.56 382.408 39.56ZM471.861 16.04H455.861V61H442.181V16.04H426.181V4.36H471.861V16.04ZM496.598 20.36L496.038 31.88C495.025 31.6133 493.905 31.48 492.678 31.48C489.531 31.48 487.185 32.4667 485.638 34.44C484.091 36.36 483.318 38.3867 483.318 40.52V61H470.198V21.16H482.838V26.92H482.998C484.011 24.84 485.478 23.1867 487.398 21.96C489.318 20.68 491.451 20.04 493.798 20.04C495.078 20.04 496.011 20.1467 496.598 20.36ZM524.187 45V43.64H522.507C514.347 43.64 510.267 45.4533 510.267 49.08C510.267 50.4667 510.827 51.5067 511.947 52.2C513.067 52.84 514.4 53.16 515.947 53.16C518.56 53.16 520.587 52.44 522.027 51C523.467 49.5067 524.187 47.5067 524.187 45ZM506.747 33.72L500.107 26.6C504.854 22.12 510.774 19.88 517.867 19.88C524.427 19.88 529.12 21.56 531.947 24.92C534.774 28.2267 536.187 33.56 536.187 40.92V61H524.187V56.76H523.947C522.987 58.36 521.467 59.64 519.387 60.6C517.307 61.5067 515.067 61.96 512.667 61.96C510.32 61.96 508.107 61.6133 506.027 60.92C504 60.1733 502.187 58.8133 500.587 56.84C498.987 54.8667 498.187 52.4133 498.187 49.48C498.187 40.52 506.72 36.04 523.787 36.04V35.4C523.787 33.5333 523.12 32.12 521.787 31.16C520.454 30.1467 518.72 29.64 516.587 29.64C512.96 29.64 509.68 31 506.747 33.72ZM585.339 61H572.139V39.24C572.139 33.64 570.166 30.84 566.219 30.84C563.979 30.84 562.246 31.6667 561.019 33.32C559.793 34.9733 559.179 37 559.179 39.4V61H545.979V21.16H558.699V26.68H558.859C559.819 24.8133 561.366 23.24 563.499 21.96C565.686 20.68 568.113 20.04 570.779 20.04C575.739 20.04 579.393 21.64 581.739 24.84C584.139 27.9867 585.339 31.8267 585.339 36.36V61ZM625.916 25.48L618.716 32.92C616.21 30.52 613.436 29.32 610.396 29.32C609.01 29.32 607.836 29.5867 606.876 30.12C605.916 30.6533 605.436 31.4533 605.436 32.52C605.436 33.5867 605.943 34.36 606.956 34.84C607.97 35.32 609.89 35.88 612.716 36.52C621.196 38.44 625.436 42.4933 625.436 48.68C625.436 53.32 623.756 56.76 620.396 59C617.09 61.1867 613.09 62.28 608.396 62.28C605.09 62.28 601.863 61.7467 598.716 60.68C595.623 59.6133 593.063 58.0933 591.036 56.12L598.396 48.36C601.116 51.3467 604.37 52.84 608.156 52.84C609.436 52.84 610.53 52.5733 611.436 52.04C612.396 51.4533 612.876 50.5733 612.876 49.4C612.876 48.2267 612.29 47.3467 611.116 46.76C609.996 46.1733 607.943 45.5333 604.956 44.84C597.223 43.0267 593.356 39.16 593.356 33.24C593.356 28.8667 595.036 25.56 598.396 23.32C601.756 21.0267 605.596 19.88 609.916 19.88C616.583 19.88 621.916 21.7467 625.916 25.48ZM672.451 61H659.251V39.4C659.251 33.8 657.304 31 653.411 31C651.224 31 649.491 31.8 648.211 33.4C646.931 35 646.291 37.0267 646.291 39.48V61H633.171V0.519997H646.291V26.2H646.451C647.411 24.4933 648.904 23.0533 650.931 21.88C652.957 20.6533 655.277 20.04 657.891 20.04C662.904 20.04 666.584 21.64 668.931 24.84C671.277 27.9867 672.451 31.8267 672.451 36.36V61ZM721.266 61H708.626V55.48H708.466C707.506 57.3467 705.932 58.92 703.746 60.2C701.559 61.48 699.132 62.12 696.466 62.12C691.506 62.12 687.852 60.5467 685.506 57.4C683.159 54.2 681.986 50.3333 681.986 45.8V21.16H695.186V42.76C695.186 48.4133 697.159 51.24 701.106 51.24C703.292 51.24 704.999 50.4133 706.226 48.76C707.506 47.1067 708.146 45.08 708.146 42.68V21.16H721.266V61ZM775.926 40.92C775.926 46.7867 774.193 51.8 770.726 55.96C767.313 60.0667 762.726 62.12 756.966 62.12C754.3 62.12 751.766 61.56 749.366 60.44C747.02 59.32 745.206 57.7733 743.926 55.8H743.766V61H731.686V0.519997H744.806V25.4H744.966C748.006 21.8267 752.06 20.04 757.126 20.04C762.726 20.04 767.26 22.0933 770.726 26.2C774.193 30.2533 775.926 35.16 775.926 40.92ZM763.286 40.92C763.286 38.1467 762.433 35.7733 760.726 33.8C759.073 31.7733 756.78 30.76 753.846 30.76C751.02 30.76 748.7 31.8 746.886 33.88C745.126 35.96 744.246 38.3333 744.246 41C744.246 43.72 745.126 46.12 746.886 48.2C748.7 50.2267 751.02 51.24 753.846 51.24C756.78 51.24 759.073 50.2267 760.726 48.2C762.433 46.1733 763.286 43.7467 763.286 40.92ZM845.541 61H804.581V49.8L826.661 29.8C829.754 26.8667 831.301 23.96 831.301 21.08C831.301 19.0533 830.661 17.4267 829.381 16.2C828.101 14.92 826.394 14.28 824.261 14.28C822.074 14.28 820.261 15.08 818.821 16.68C817.381 18.2267 816.527 20.28 816.261 22.84L803.381 21.08C804.021 15.48 806.367 11.0533 810.421 7.8C814.474 4.49333 819.327 2.84 824.981 2.84C830.634 2.84 835.461 4.33333 839.461 7.32C843.461 10.3067 845.461 14.6 845.461 20.2C845.461 23.8267 844.607 26.92 842.901 29.48C841.247 32.04 838.794 34.76 835.541 37.64L822.421 49.32H845.541V61ZM899.819 49.96H892.059V61H879.499V49.96H852.859V38.68L875.899 4.36H891.979V39.08H899.819V49.96ZM879.579 39.08V18.12H879.339L865.899 39.08H879.579Z" fill="white"/>
</svg>
